<svg xmlns:xlink="http://www.w3.org/1999/xlink" xmlns="http://www.w3.org/2000/svg" id="instagram" width="18" height="18" viewBox="0 0 18 18" fill="#5E3B76">
<path fillRule="evenodd" clipRule="evenodd" d="M8.55147 0.277344C6.23393 0.277344 5.94308 0.287477 5.03285 0.3289C4.1244 0.3705 3.5043 0.514324 2.96172 0.725348C2.40047 0.943306 1.92438 1.23486 1.45006 1.70936C0.975389 2.18367 0.68383 2.65977 0.465161 3.22084C0.253603 3.7636 0.109602 4.38388 0.0687123 5.29197C0.0280008 6.20221 0.017334 6.49323 0.017334 8.81077C0.017334 11.1283 0.0276452 11.4183 0.0688901 12.3285C0.110668 13.2369 0.254492 13.857 0.465339 14.3996C0.683474 14.9609 0.975033 15.437 1.44953 15.9113C1.92367 16.386 2.39976 16.6782 2.96065 16.8962C3.50359 17.1072 4.12387 17.251 5.03214 17.2926C5.94237 17.3341 6.23304 17.3442 8.5504 17.3442C10.8681 17.3442 11.1581 17.3341 12.0683 17.2926C12.9768 17.251 13.5976 17.1072 14.1405 16.8962C14.7016 16.6782 15.177 16.386 15.6511 15.9113C16.1258 15.437 16.4173 14.9609 16.636 14.3998C16.8458 13.857 16.9898 13.2368 17.0324 12.3287C17.0733 11.4184 17.084 11.1283 17.084 8.81077C17.084 6.49323 17.0733 6.20238 17.0324 5.29215C16.9898 4.3837 16.8458 3.7636 16.636 3.22102C16.4173 2.65977 16.1258 2.18367 15.6511 1.70936C15.1764 1.23469 14.7018 0.943128 14.14 0.725348C13.596 0.514324 12.9755 0.3705 12.0671 0.3289C11.1568 0.287477 10.867 0.277344 8.5488 0.277344H8.55147ZM7.78591 1.81511C8.01311 1.81476 8.26663 1.81511 8.55143 1.81511C10.8299 1.81511 11.0999 1.82329 11.9996 1.86418C12.8317 1.90223 13.2832 2.04125 13.584 2.15805C13.9822 2.31272 14.2662 2.49761 14.5646 2.79628C14.8633 3.09495 15.0482 3.3794 15.2032 3.77762C15.32 4.07807 15.4592 4.52963 15.4971 5.36164C15.538 6.2612 15.5469 6.53143 15.5469 8.80879C15.5469 11.0861 15.538 11.3564 15.4971 12.2559C15.4591 13.0879 15.32 13.5395 15.2032 13.84C15.0486 14.2382 14.8633 14.5217 14.5646 14.8202C14.266 15.1189 13.9824 15.3038 13.584 15.4585C13.2836 15.5758 12.8317 15.7145 11.9996 15.7525C11.1001 15.7934 10.8299 15.8023 8.55143 15.8023C6.27283 15.8023 6.00278 15.7934 5.10322 15.7525C4.27121 15.7141 3.81965 15.5751 3.51867 15.4583C3.12044 15.3036 2.83599 15.1187 2.53732 14.82C2.23865 14.5214 2.05376 14.2376 1.89874 13.8392C1.78194 13.5388 1.64274 13.0872 1.60487 12.2552C1.56398 11.3557 1.5558 11.0854 1.5558 8.80665C1.5558 6.52787 1.56398 6.25907 1.60487 5.35951C1.64291 4.5275 1.78194 4.07594 1.89874 3.77513C2.05341 3.37691 2.23865 3.09246 2.53732 2.79379C2.83599 2.49512 3.12044 2.31023 3.51867 2.15521C3.81947 2.03787 4.27121 1.8992 5.10322 1.86098C5.89043 1.82542 6.19549 1.81476 7.78591 1.81298V1.81511ZM13.1065 3.23202C12.5412 3.23202 12.0825 3.69016 12.0825 4.25568C12.0825 4.82101 12.5412 5.27969 13.1065 5.27969C13.6718 5.27969 14.1305 4.82101 14.1305 4.25568C14.1305 3.69034 13.6718 3.23202 13.1065 3.23202ZM8.55148 4.42847C6.13137 4.42847 4.16921 6.39063 4.16921 8.81074C4.16921 11.2309 6.13137 13.1921 8.55148 13.1921C10.9716 13.1921 12.933 11.2309 12.933 8.81074C12.933 6.39063 10.9716 4.42847 8.55148 4.42847ZM8.55145 5.96627C10.1223 5.96627 11.3959 7.2397 11.3959 8.81074C11.3959 10.3816 10.1223 11.6552 8.55145 11.6552C6.98041 11.6552 5.70697 10.3816 5.70697 8.81074C5.70697 7.2397 6.98041 5.96627 8.55145 5.96627Z" fill="#5E3B76"/>
</svg>