<svg xmlns:xlink="http://www.w3.org/1999/xlink" xmlns="http://www.w3.org/2000/svg" width="28" height="24" viewBox="0 0 28 24" fill="none">
<path d="M28 3.31825C26.9587 3.775 25.8492 4.07775 24.6925 4.22475C25.8825 3.51425 26.7908 2.39775 27.2178 1.052C26.1083 1.7135 24.8832 2.18075 23.5777 2.4415C22.5243 1.31975 21.0227 0.625 19.3848 0.625C16.2067 0.625 13.6482 3.2045 13.6482 6.36675C13.6482 6.82175 13.6868 7.25925 13.7812 7.67575C9.009 7.443 4.78625 5.15575 1.9495 1.6715C1.45425 2.53075 1.16375 3.51425 1.16375 4.573C1.16375 6.561 2.1875 8.32325 3.7135 9.3435C2.79125 9.326 1.8865 9.05825 1.12 8.6365C1.12 8.654 1.12 8.67675 1.12 8.6995C1.12 11.489 3.10975 13.806 5.719 14.3398C5.25175 14.4675 4.7425 14.5287 4.214 14.5287C3.8465 14.5287 3.4755 14.5077 3.12725 14.4307C3.871 16.704 5.9815 18.3752 8.491 18.4295C6.538 19.9573 4.05825 20.8778 1.37375 20.8778C0.903 20.8778 0.4515 20.8568 0 20.799C2.54275 22.4387 5.55625 23.375 8.806 23.375C19.369 23.375 25.144 14.625 25.144 7.0405C25.144 6.78675 25.1353 6.54175 25.123 6.2985C26.2622 5.49 27.2195 4.48025 28 3.31825Z" fill="#03A9F4"/>
</svg>