<svg width="75" height="76" viewBox="0 0 75 76" fill="none" xmlns="http://www.w3.org/2000/svg">
<path d="M53.9062 40.9297C55.8479 40.9297 57.4219 39.3557 57.4219 37.4141C57.4219 35.4724 55.8479 33.8984 53.9062 33.8984C51.9646 33.8984 50.3906 35.4724 50.3906 37.4141C50.3906 39.3557 51.9646 40.9297 53.9062 40.9297Z" fill="#E2D9F3"/>
<path d="M70.3125 15.1484H37.5C36.5679 15.1495 35.6743 15.5202 35.0152 16.1793C34.3561 16.8384 33.9854 17.732 33.9844 18.6641V21.0078H73.8281V18.6641C73.8271 17.732 73.4564 16.8384 72.7973 16.1793C72.1382 15.5202 71.2446 15.1495 70.3125 15.1484Z" fill="#E2D9F3"/>
<path d="M33.9844 70.2266C33.9854 71.1587 34.3561 72.0523 35.0152 72.7114C35.6743 73.3704 36.5679 73.7412 37.5 73.7422H70.3125C71.2446 73.7412 72.1382 73.3704 72.7973 72.7114C73.4564 72.0523 73.8271 71.1587 73.8281 70.2266V67.8828H33.9844V70.2266Z" fill="#E2D9F3"/>
<path d="M33.9844 65.5391H73.8281V23.3516H33.9844V65.5391ZM52.8254 31.664C52.974 30.4826 53.4485 29.366 54.1958 28.439C54.4007 28.2057 54.6898 28.0632 54.9997 28.0428C55.3095 28.0225 55.6148 28.1259 55.8485 28.3303C56.0822 28.5348 56.2252 28.8236 56.2462 29.1334C56.2672 29.4432 56.1644 29.7487 55.9605 29.9828C55.5691 30.4872 55.3089 31.0808 55.203 31.7104C56.6162 32.0324 57.8598 32.8672 58.693 34.0532C59.5263 35.2391 59.8901 36.692 59.714 38.1307C59.5379 39.5694 58.8344 40.8916 57.7397 41.8416C56.645 42.7916 55.2368 43.3018 53.7876 43.2734C52.3385 43.2451 50.9513 42.6803 49.8946 41.6882C48.8379 40.6962 48.1866 39.3475 48.0669 37.903C47.9472 36.4585 48.3674 35.0209 49.2464 33.8685C50.1254 32.716 51.4006 31.9305 52.8254 31.6639V31.664ZM48.6328 46.7891H59.1797C59.4905 46.7891 59.7886 46.9125 60.0083 47.1323C60.2281 47.3521 60.3516 47.6501 60.3516 47.9609C60.3516 48.2717 60.2281 48.5698 60.0083 48.7896C59.7886 49.0093 59.4905 49.1328 59.1797 49.1328H48.6328C48.322 49.1328 48.0239 49.0093 47.8042 48.7896C47.5844 48.5698 47.4609 48.2717 47.4609 47.9609C47.4609 47.6501 47.5844 47.3521 47.8042 47.1323C48.0239 46.9125 48.322 46.7891 48.6328 46.7891ZM41.0156 52.6484H66.7969C67.1077 52.6484 67.4057 52.7719 67.6255 52.9917C67.8453 53.2114 67.9688 53.5095 67.9688 53.8203C67.9688 54.1311 67.8453 54.4292 67.6255 54.649C67.4057 54.8687 67.1077 54.9922 66.7969 54.9922H41.0156C40.7048 54.9922 40.4068 54.8687 40.187 54.649C39.9672 54.4292 39.8438 54.1311 39.8438 53.8203C39.8438 53.5095 39.9672 53.2114 40.187 52.9917C40.4068 52.7719 40.7048 52.6484 41.0156 52.6484ZM41.0156 58.5078H66.7969C67.1077 58.5078 67.4057 58.6313 67.6255 58.851C67.8453 59.0708 67.9688 59.3689 67.9688 59.6797C67.9688 59.9905 67.8453 60.2886 67.6255 60.5083C67.4057 60.7281 67.1077 60.8516 66.7969 60.8516H41.0156C40.7048 60.8516 40.4068 60.7281 40.187 60.5083C39.9672 60.2886 39.8438 59.9905 39.8438 59.6797C39.8438 59.3689 39.9672 59.0708 40.187 58.851C40.4068 58.6313 40.7048 58.5078 41.0156 58.5078Z" fill="#E2D9F3"/>
<path d="M51.5625 2.25781H4.6875C3.75541 2.25883 2.86179 2.62955 2.2027 3.28864C1.54361 3.94773 1.17289 4.84135 1.17188 5.77344V38.5859C1.17289 39.518 1.54361 40.4116 2.2027 41.0707C2.86179 41.7298 3.75541 42.1005 4.6875 42.1016H22.1101L21.2312 49.1328H14.0625C13.7517 49.1328 13.4536 49.2563 13.2339 49.476C13.0141 49.6958 12.8906 49.9939 12.8906 50.3047C12.8906 50.6155 13.0141 50.9136 13.2339 51.1333C13.4536 51.3531 13.7517 51.4766 14.0625 51.4766H42.1875C42.4983 51.4766 42.7964 51.3531 43.0161 51.1333C43.2359 50.9136 43.3594 50.6155 43.3594 50.3047C43.3594 49.9939 43.2359 49.6958 43.0161 49.476C42.7964 49.2563 42.4983 49.1328 42.1875 49.1328H35.0188L34.1399 42.1016H51.5625C52.4946 42.1005 53.3882 41.7298 54.0473 41.0707C54.7064 40.4116 55.0771 39.518 55.0781 38.5859V5.77344C55.0771 4.84135 54.7064 3.94773 54.0473 3.28864C53.3882 2.62955 52.4946 2.25883 51.5625 2.25781ZM32.6569 49.1328H23.5931L24.472 42.1016H31.778L32.6569 49.1328ZM52.7344 38.5859C52.7341 38.8966 52.6105 39.1945 52.3908 39.4142C52.1711 39.6339 51.8732 39.7575 51.5625 39.7578H4.6875C4.37679 39.7575 4.0789 39.6339 3.8592 39.4142C3.6395 39.1945 3.51594 38.8966 3.51562 38.5859V5.77344C3.51594 5.46273 3.6395 5.16484 3.8592 4.94514C4.0789 4.72544 4.37679 4.60187 4.6875 4.60156H51.5625C51.8732 4.60187 52.1711 4.72544 52.3908 4.94514C52.6105 5.16484 52.7341 5.46273 52.7344 5.77344V38.5859Z" fill="#212529"/>
<path d="M14.1882 16.4757C14.2941 15.8461 14.5543 15.2526 14.9457 14.7481C15.1497 14.514 15.2524 14.2085 15.2314 13.8987C15.2104 13.5889 15.0674 13.3001 14.8337 13.0957C14.6 12.8912 14.2947 12.7878 13.9849 12.8082C13.675 12.8286 13.3859 12.971 13.181 13.2043C12.4338 14.1313 11.9592 15.248 11.8106 16.4293C10.3836 16.6959 9.10616 17.4822 8.22554 18.6363C7.34493 19.7904 6.92372 21.2301 7.04342 22.6768C7.16311 24.1236 7.81522 25.4745 8.87353 26.4681C9.93184 27.4618 11.3211 28.0275 12.7725 28.0559C14.2239 28.0843 15.6343 27.5733 16.7306 26.6218C17.8269 25.6702 18.5314 24.3458 18.7075 22.9049C18.8837 21.4639 18.5191 20.0089 17.6842 18.8213C16.8494 17.6336 15.6037 16.7979 14.1882 16.4758V16.4757ZM12.8915 25.695C12.1961 25.695 11.5164 25.4888 10.9383 25.1025C10.3601 24.7162 9.90953 24.1671 9.64344 23.5247C9.37735 22.8823 9.30773 22.1754 9.44338 21.4935C9.57903 20.8115 9.91386 20.1851 10.4055 19.6934C10.8972 19.2018 11.5236 18.8669 12.2056 18.7313C12.8876 18.5956 13.5944 18.6652 14.2368 18.9313C14.8792 19.1974 15.4283 19.648 15.8146 20.2262C16.2009 20.8043 16.4071 21.484 16.4071 22.1793C16.4061 23.1114 16.0353 24.0051 15.3763 24.6641C14.7172 25.3232 13.8235 25.694 12.8915 25.695Z" fill="#212529"/>
<path d="M23.4375 13.9766H33.9844C34.2952 13.9766 34.5932 13.8531 34.813 13.6333C35.0328 13.4136 35.1562 13.1155 35.1562 12.8047C35.1562 12.4939 35.0328 12.1958 34.813 11.976C34.5932 11.7563 34.2952 11.6328 33.9844 11.6328H23.4375C23.1267 11.6328 22.8286 11.7563 22.6089 11.976C22.3891 12.1958 22.2656 12.4939 22.2656 12.8047C22.2656 13.1155 22.3891 13.4136 22.6089 13.6333C22.8286 13.8531 23.1267 13.9766 23.4375 13.9766Z" fill="#212529"/>
<path d="M48.0469 21.0078H23.4375C23.1267 21.0078 22.8286 21.1313 22.6089 21.351C22.3891 21.5708 22.2656 21.8689 22.2656 22.1797C22.2656 22.4905 22.3891 22.7886 22.6089 23.0083C22.8286 23.2281 23.1267 23.3516 23.4375 23.3516H48.0469C48.3577 23.3516 48.6557 23.2281 48.8755 23.0083C49.0953 22.7886 49.2188 22.4905 49.2188 22.1797C49.2188 21.8689 49.0953 21.5708 48.8755 21.351C48.6557 21.1313 48.3577 21.0078 48.0469 21.0078Z" fill="#212529"/>
<path d="M48.0469 30.3828H23.4375C23.1267 30.3828 22.8286 30.5063 22.6089 30.726C22.3891 30.9458 22.2656 31.2439 22.2656 31.5547C22.2656 31.8655 22.3891 32.1636 22.6089 32.3833C22.8286 32.6031 23.1267 32.7266 23.4375 32.7266H48.0469C48.3577 32.7266 48.6557 32.6031 48.8755 32.3833C49.0953 32.1636 49.2188 31.8655 49.2188 31.5547C49.2188 31.2439 49.0953 30.9458 48.8755 30.726C48.6557 30.5063 48.3577 30.3828 48.0469 30.3828Z" fill="#212529"/>
</svg>
