<svg xmlns:xlink="http://www.w3.org/1999/xlink" class="h-7 w-7 xl:h-10 xl:w-10" viewBox="0 0 40 40" fill="none" xmlns="http://www.w3.org/2000/svg" width="40"  height="40" ><path d="M28.3334 5.83334H11.6667C6.66671 5.83334 3.33337 8.33334 3.33337 14.1667V25.8333C3.33337 31.6667 6.66671 34.1667 11.6667 34.1667H28.3334C33.3334 34.1667 36.6667 31.6667 36.6667 25.8333V14.1667C36.6667 8.33334 33.3334 5.83334 28.3334 5.83334ZM29.1167 15.9833L23.9 20.15C22.8 21.0333 21.4 21.4667 20 21.4667C18.6 21.4667 17.1834 21.0333 16.1 20.15L10.8834 15.9833C10.35 15.55 10.2667 14.75 10.6834 14.2167C11.1167 13.6833 11.9 13.5833 12.4334 14.0167L17.65 18.1833C18.9167 19.2 21.0667 19.2 22.3334 18.1833L27.55 14.0167C28.0834 13.5833 28.8834 13.6667 29.3 14.2167C29.7334 14.75 29.65 15.55 29.1167 15.9833Z" fill="#FFFFFF"></path></svg>