<svg xmlns:xlink="http://www.w3.org/1999/xlink" class="h-7 w-7 xl:h-10 xl:w-10" viewBox="0 0 40 40" fill="none" xmlns="http://www.w3.org/2000/svg" width="40"  height="40" ><path d="M29.3667 17.9167C28.65 17.9167 28.0834 17.3333 28.0834 16.6333C28.0834 16.0167 27.4667 14.7333 26.4334 13.6167C25.4167 12.5333 24.3 11.9 23.3667 11.9C22.65 11.9 22.0834 11.3167 22.0834 10.6167C22.0834 9.91666 22.6667 9.33333 23.3667 9.33333C25.0334 9.33333 26.7834 10.2333 28.3167 11.85C29.75 13.3667 30.6667 15.25 30.6667 16.6167C30.6667 17.3333 30.0834 17.9167 29.3667 17.9167Z" fill="#FFFFFF"></path><path d="M35.3833 17.9167C34.6666 17.9167 34.1 17.3333 34.1 16.6333C34.1 10.7167 29.2833 5.91666 23.3833 5.91666C22.6666 5.91666 22.1 5.33333 22.1 4.63333C22.1 3.93333 22.6666 3.33333 23.3666 3.33333C30.7 3.33333 36.6666 9.29999 36.6666 16.6333C36.6666 17.3333 36.0833 17.9167 35.3833 17.9167Z" fill="#FFFFFF"></path><path d="M18.4167 24.9167L15.3334 28C14.6834 28.65 13.65 28.65 12.9834 28.0167C12.8 27.8333 12.6167 27.6667 12.4334 27.4833C10.7167 25.75 9.16671 23.9333 7.78337 22.0333C6.41671 20.1333 5.31671 18.2333 4.51671 16.35C3.73337 14.45 3.33337 12.6333 3.33337 10.9C3.33337 9.76666 3.53337 8.68333 3.93337 7.68333C4.33337 6.66666 4.96671 5.73333 5.85004 4.89999C6.91671 3.84999 8.08337 3.33333 9.31671 3.33333C9.78337 3.33333 10.25 3.43333 10.6667 3.63333C11.1 3.83333 11.4834 4.13333 11.7834 4.56666L15.65 10.0167C15.95 10.4333 16.1667 10.8167 16.3167 11.1833C16.4667 11.5333 16.55 11.8833 16.55 12.2C16.55 12.6 16.4334 13 16.2 13.3833C15.9834 13.7667 15.6667 14.1667 15.2667 14.5667L14 15.8833C13.8167 16.0667 13.7334 16.2833 13.7334 16.55C13.7334 16.6833 13.75 16.8 13.7834 16.9333C13.8334 17.0667 13.8834 17.1667 13.9167 17.2667C14.2167 17.8167 14.7334 18.5333 15.4667 19.4C16.2167 20.2667 17.0167 21.15 17.8834 22.0333C18.05 22.2 18.2334 22.3667 18.4 22.5333C19.0667 23.1833 19.0834 24.25 18.4167 24.9167Z" fill="#FFFFFF"></path><path d="M36.6167 30.55C36.6167 31.0167 36.5333 31.5 36.3667 31.9667C36.3167 32.1 36.2667 32.2333 36.2 32.3667C35.9167 32.9667 35.55 33.5333 35.0667 34.0667C34.25 34.9667 33.35 35.6167 32.3333 36.0333C32.3167 36.0333 32.3 36.05 32.2833 36.05C31.3 36.45 30.2333 36.6667 29.0833 36.6667C27.3833 36.6667 25.5667 36.2667 23.65 35.45C21.7333 34.6333 19.8167 33.5333 17.9167 32.15C17.2667 31.6667 16.6167 31.1833 16 30.6667L21.45 25.2167C21.9167 25.5667 22.3333 25.8333 22.6833 26.0167C22.7667 26.05 22.8667 26.1 22.9833 26.15C23.1167 26.2 23.25 26.2167 23.4 26.2167C23.6833 26.2167 23.9 26.1167 24.0833 25.9333L25.35 24.6833C25.7667 24.2667 26.1667 23.95 26.55 23.75C26.9333 23.5167 27.3167 23.4 27.7333 23.4C28.05 23.4 28.3833 23.4667 28.75 23.6167C29.1167 23.7667 29.5 23.9833 29.9167 24.2667L35.4333 28.1833C35.8667 28.4833 36.1667 28.8333 36.35 29.25C36.5167 29.6667 36.6167 30.0833 36.6167 30.55Z" fill="#FFFFFF"></path></svg>