<svg width="75" height="76" viewBox="0 0 75 76" fill="none" xmlns="http://www.w3.org/2000/svg">
<path d="M55.7287 65.5814C55.7439 65.6856 55.7961 65.7809 55.8757 65.8498C55.9553 65.9187 56.0571 65.9567 56.1624 65.9568H64.5418C64.6471 65.9567 64.7489 65.9187 64.8285 65.8498C64.9081 65.7809 64.9603 65.6856 64.9755 65.5814L65.6027 61.1914H55.1016L55.7287 65.5814Z" fill="#E2D9F3"/>
<path d="M35.7422 47.9609H66.2109C66.6771 47.9609 67.1242 47.7757 67.4539 47.4461C67.7836 47.1164 67.9688 46.6693 67.9688 46.2031C67.9688 45.7369 67.7836 45.2898 67.4539 44.9602C67.1242 44.6305 66.6771 44.4453 66.2109 44.4453H35.7422C35.276 44.4453 34.8289 44.6305 34.4992 44.9602C34.1696 45.2898 33.9844 45.7369 33.9844 46.2031C33.9844 46.6693 34.1696 47.1164 34.4992 47.4461C34.8289 47.7757 35.276 47.9609 35.7422 47.9609Z" fill="#E2D9F3"/>
<path d="M28.125 71.3984C28.125 72.02 28.3719 72.6162 28.8115 73.0557C29.251 73.4953 29.8471 73.7422 30.4688 73.7422H71.4844C72.106 73.7422 72.7021 73.4953 73.1417 73.0557C73.5812 72.6162 73.8281 72.02 73.8281 71.3984V37.4141H28.125V71.3984ZM67.2958 65.9133C67.1981 66.5749 66.8664 67.1795 66.361 67.6175C65.8557 68.0555 65.21 68.2978 64.5412 68.3005H56.1619C55.4931 68.2978 54.8475 68.0555 54.3421 67.6175C53.8367 67.1795 53.505 66.5749 53.4073 65.9133L52.589 60.1855C52.5654 60.0193 52.5777 59.8499 52.6251 59.6888C52.6726 59.5277 52.7541 59.3787 52.8641 59.2519C52.9741 59.1251 53.1101 59.0233 53.2628 58.9536C53.4156 58.8839 53.5816 58.8477 53.7495 58.8477H58.1083L55.069 55.8723C54.9573 55.7651 54.868 55.6368 54.8061 55.4948C54.7443 55.3529 54.7112 55.2001 54.7088 55.0453C54.7063 54.8905 54.7346 54.7368 54.7919 54.593C54.8493 54.4491 54.9345 54.3181 55.0428 54.2074C55.151 54.0968 55.2801 54.0086 55.4226 53.9481C55.5652 53.8877 55.7182 53.856 55.8731 53.855C56.0279 53.854 56.1813 53.8837 56.3246 53.9424C56.4679 54.0011 56.5981 54.0876 56.7078 54.1968L60.3516 57.7639L63.9954 54.1968C64.105 54.0876 64.2353 54.0012 64.3785 53.9426C64.5218 53.884 64.6752 53.8543 64.83 53.8553C64.9848 53.8563 65.1378 53.888 65.2803 53.9485C65.4227 54.009 65.5518 54.0971 65.66 54.2078C65.7683 54.3184 65.8535 54.4494 65.9108 54.5932C65.9682 54.7369 65.9964 54.8906 65.994 55.0454C65.9916 55.2002 65.9586 55.3529 65.8968 55.4948C65.835 55.6368 65.7458 55.765 65.6342 55.8723L62.5948 58.8477H66.9537C67.1216 58.8477 67.2875 58.8838 67.4403 58.9536C67.593 59.0233 67.729 59.125 67.839 59.2519C67.9491 59.3787 68.0306 59.5277 68.078 59.6888C68.1255 59.8498 68.1378 60.0192 68.1141 60.1855L67.2958 65.9133ZM35.7422 42.1016H66.2109C67.2987 42.1016 68.342 42.5337 69.1112 43.3029C69.8804 44.0721 70.3125 45.1153 70.3125 46.2031C70.3125 47.2909 69.8804 48.3342 69.1112 49.1034C68.342 49.8726 67.2987 50.3047 66.2109 50.3047H35.7422C34.6544 50.3047 33.6111 49.8726 32.8419 49.1034C32.0728 48.3342 31.6406 47.2909 31.6406 46.2031C31.6406 45.1153 32.0728 44.0721 32.8419 43.3029C33.6111 42.5337 34.6544 42.1016 35.7422 42.1016Z" fill="#E2D9F3"/>
<path d="M71.4844 24.5234H30.4688C29.8471 24.5234 29.251 24.7704 28.8115 25.2099C28.3719 25.6494 28.125 26.2456 28.125 26.8672V35.0703H73.8281V26.8672C73.8281 26.2456 73.5812 25.6494 73.1417 25.2099C72.7021 24.7704 72.106 24.5234 71.4844 24.5234ZM42.1875 30.9688H32.8125C32.5017 30.9688 32.2036 30.8453 31.9839 30.6255C31.7641 30.4057 31.6406 30.1077 31.6406 29.7969C31.6406 29.4861 31.7641 29.188 31.9839 28.9682C32.2036 28.7485 32.5017 28.625 32.8125 28.625H42.1875C42.4983 28.625 42.7964 28.7485 43.0161 28.9682C43.2359 29.188 43.3594 29.4861 43.3594 29.7969C43.3594 30.1077 43.2359 30.4057 43.0161 30.6255C42.7964 30.8453 42.4983 30.9688 42.1875 30.9688Z" fill="#E2D9F3"/>
<path d="M56.25 2.25781H4.6875C3.75541 2.25883 2.86179 2.62955 2.2027 3.28864C1.54361 3.94773 1.17289 4.84135 1.17188 5.77344V49.1328C1.17289 50.0649 1.54361 50.9585 2.2027 51.6176C2.86179 52.2767 3.75541 52.6474 4.6875 52.6484H19.9219V58.5078H15.2344C14.9236 58.5078 14.6255 58.6313 14.4057 58.851C14.186 59.0708 14.0625 59.3689 14.0625 59.6797C14.0625 59.9905 14.186 60.2886 14.4057 60.5083C14.6255 60.7281 14.9236 60.8516 15.2344 60.8516H45.7031C46.0139 60.8516 46.312 60.7281 46.5318 60.5083C46.7515 60.2886 46.875 59.9905 46.875 59.6797C46.875 59.3689 46.7515 59.0708 46.5318 58.851C46.312 58.6313 46.0139 58.5078 45.7031 58.5078H41.0156V52.6484H56.25C57.1821 52.6474 58.0757 52.2767 58.7348 51.6176C59.3939 50.9585 59.7646 50.0649 59.7656 49.1328V5.77344C59.7646 4.84135 59.3939 3.94773 58.7348 3.28864C58.0757 2.62955 57.1821 2.25883 56.25 2.25781ZM38.6719 58.5078H22.2656V52.6484H38.6719V58.5078ZM57.4219 49.1328C57.4217 49.4436 57.2981 49.7415 57.0784 49.9612C56.8587 50.1809 56.5607 50.3045 56.25 50.3047H4.6875C4.37676 50.3045 4.07881 50.1809 3.85909 49.9612C3.63936 49.7415 3.51583 49.4436 3.51562 49.1328V5.77344C3.51583 5.4627 3.63936 5.16475 3.85909 4.94503C4.07881 4.7253 4.37676 4.60177 4.6875 4.60156H56.25C56.5607 4.60177 56.8587 4.7253 57.0784 4.94503C57.2981 5.16475 57.4217 5.4627 57.4219 5.77344V49.1328Z" fill="#212529"/>
<path d="M51.5625 19.8359C51.5605 17.9718 50.819 16.1845 49.5008 14.8663C48.1827 13.5482 46.3954 12.8067 44.5312 12.8047H16.4062C14.5414 12.8047 12.753 13.5455 11.4344 14.8641C10.1158 16.1827 9.375 17.9711 9.375 19.8359C9.375 21.7007 10.1158 23.4892 11.4344 24.8078C12.753 26.1264 14.5414 26.8672 16.4062 26.8672H39.0495L37.5137 36.7766C37.4812 36.9874 37.5067 37.2031 37.5876 37.4005C37.6686 37.5978 37.8018 37.7693 37.9729 37.8966C38.1441 38.0239 38.3467 38.102 38.559 38.1227C38.7713 38.1433 38.9852 38.1056 39.1777 38.0137L41.1976 37.0479L42.1749 39.0918C42.3094 39.3719 42.5495 39.5873 42.8426 39.6907C43.1356 39.7941 43.4577 39.7771 43.7382 39.6434L48.571 37.3328C48.8514 37.1986 49.0671 36.9586 49.1705 36.6654C49.274 36.3722 49.2567 36.05 49.1226 35.7695L48.1453 33.7256L50.1663 32.7597C50.3584 32.6674 50.5218 32.5245 50.6388 32.3463C50.7557 32.1682 50.822 31.9615 50.8303 31.7485C50.8387 31.5355 50.7888 31.3243 50.6862 31.1375C50.5835 30.9507 50.4319 30.7954 50.2476 30.6884L43.6423 26.8672H44.5312C46.3954 26.8652 48.1827 26.1237 49.5008 24.8055C50.819 23.4874 51.5605 21.7001 51.5625 19.8359ZM45.5257 33.6799L46.5031 35.7238L43.7839 37.0238L42.8066 34.9788C42.6723 34.6984 42.4323 34.4829 42.1391 34.3794C41.846 34.276 41.5238 34.2932 41.2433 34.4272L40.1699 34.941L41.2193 28.173L47.1497 31.6039L46.0774 32.1166C45.797 32.2508 45.5813 32.4908 45.4779 32.784C45.3744 33.0772 45.3916 33.3994 45.5257 33.6799ZM11.7188 19.8359C11.72 18.5931 12.2143 17.4016 13.0931 16.5227C13.9719 15.6439 15.1634 15.1497 16.4062 15.1484H44.5312C45.7745 15.1484 46.9667 15.6423 47.8458 16.5214C48.7249 17.4005 49.2188 18.5927 49.2188 19.8359C49.2188 21.0791 48.7249 22.2714 47.8458 23.1505C46.9667 24.0296 45.7745 24.5234 44.5312 24.5234H16.4062C15.1634 24.5222 13.9719 24.0279 13.0931 23.1491C12.2143 22.2703 11.72 21.0788 11.7188 19.8359Z" fill="#212529"/>
<path d="M24.6094 32.7266H11.7188C11.4079 32.7266 11.1099 32.85 10.8901 33.0698C10.6703 33.2896 10.5469 33.5876 10.5469 33.8984C10.5469 34.2092 10.6703 34.5073 10.8901 34.7271C11.1099 34.9468 11.4079 35.0703 11.7188 35.0703H24.6094C24.9202 35.0703 25.2182 34.9468 25.438 34.7271C25.6578 34.5073 25.7812 34.2092 25.7812 33.8984C25.7812 33.5876 25.6578 33.2896 25.438 33.0698C25.2182 32.85 24.9202 32.7266 24.6094 32.7266Z" fill="#212529"/>
<path d="M24.6094 39.7578H11.7188C11.4079 39.7578 11.1099 39.8813 10.8901 40.101C10.6703 40.3208 10.5469 40.6189 10.5469 40.9297C10.5469 41.2405 10.6703 41.5386 10.8901 41.7583C11.1099 41.9781 11.4079 42.1016 11.7188 42.1016H24.6094C24.9202 42.1016 25.2182 41.9781 25.438 41.7583C25.6578 41.5386 25.7812 41.2405 25.7812 40.9297C25.7812 40.6189 25.6578 40.3208 25.438 40.101C25.2182 39.8813 24.9202 39.7578 24.6094 39.7578Z" fill="#212529"/>
</svg>
