<svg width="75" height="76" viewBox="0 0 75 76" fill="none" xmlns="http://www.w3.org/2000/svg">
<path d="M49.2188 43.8594C42.6941 43.8665 36.4388 46.4616 31.8252 51.0752C27.2116 55.6888 24.6165 61.9441 24.6094 68.4688V70.8125C24.6094 71.7449 24.9798 72.6391 25.6391 73.2984C26.2984 73.9577 27.1926 74.3281 28.125 74.3281H70.3125C71.2449 74.3281 72.1391 73.9577 72.7984 73.2984C73.4577 72.6391 73.8281 71.7449 73.8281 70.8125V68.4688C73.821 61.9441 71.2259 55.6888 66.6123 51.0752C61.9987 46.4616 55.7434 43.8665 49.2188 43.8594Z" fill="#E2D9F3"/>
<path d="M49.2188 41.5156C55.0436 41.5156 59.7656 36.7936 59.7656 30.9688C59.7656 25.1439 55.0436 20.4219 49.2188 20.4219C43.3939 20.4219 38.6719 25.1439 38.6719 30.9688C38.6719 36.7936 43.3939 41.5156 49.2188 41.5156Z" fill="#E2D9F3"/>
<path d="M46.875 1.67188H4.6875C3.7551 1.67188 2.86089 2.04227 2.20158 2.70158C1.54227 3.36089 1.17188 4.2551 1.17188 5.1875V47.375C1.17188 48.3074 1.54227 49.2016 2.20158 49.8609C2.86089 50.5202 3.7551 50.8906 4.6875 50.8906H46.875C47.8074 50.8906 48.7016 50.5202 49.3609 49.8609C50.0202 49.2016 50.3906 48.3074 50.3906 47.375V5.1875C50.3906 4.2551 50.0202 3.36089 49.3609 2.70158C48.7016 2.04227 47.8074 1.67188 46.875 1.67188ZM4.6875 4.01562H46.875C47.1858 4.01562 47.4839 4.13909 47.7036 4.35886C47.9234 4.57863 48.0469 4.8767 48.0469 5.1875V11.0469H3.51562V5.1875C3.51562 4.8767 3.63909 4.57863 3.85886 4.35886C4.07863 4.13909 4.3767 4.01562 4.6875 4.01562ZM46.875 48.5469H4.6875C4.3767 48.5469 4.07863 48.4234 3.85886 48.2036C3.63909 47.9839 3.51562 47.6858 3.51562 47.375V13.3906H48.0469V47.375C48.0469 47.6858 47.9234 47.9839 47.7036 48.2036C47.4839 48.4234 47.1858 48.5469 46.875 48.5469Z" fill="#212529"/>
<path d="M16.6409 21.8772C17.8322 20.6741 19.2496 19.7182 20.8116 19.0647C21.079 18.9329 21.286 18.7041 21.3906 18.4249C21.4953 18.1458 21.4896 17.8373 21.3747 17.5622C21.2599 17.2871 21.0445 17.0661 20.7725 16.9442C20.5004 16.8223 20.1922 16.8087 19.9104 16.9061C18.0652 17.6764 16.3902 18.8034 14.9815 20.2225C14.8698 20.3308 14.7807 20.4602 14.7195 20.6033C14.6583 20.7463 14.6262 20.9001 14.625 21.0557C14.6239 21.2113 14.6538 21.3656 14.7129 21.5095C14.772 21.6535 14.8592 21.7842 14.9694 21.894C15.0796 22.0039 15.2105 22.0907 15.3546 22.1495C15.4987 22.2082 15.6531 22.2376 15.8087 22.236C15.9643 22.2345 16.118 22.2019 16.2609 22.1403C16.4038 22.0787 16.5329 21.9893 16.6409 21.8772Z" fill="#212529"/>
<path d="M25.7822 18.0781C27.4606 18.0751 29.1233 18.4015 30.6759 19.0391C30.9634 19.1572 31.286 19.1563 31.5728 19.0365C31.8596 18.9167 32.0871 18.6879 32.2052 18.4004C32.3233 18.1129 32.3224 17.7903 32.2026 17.5035C32.0828 17.2167 31.854 16.9892 31.5665 16.8711C29.7315 16.117 27.7661 15.7308 25.7822 15.7344H25.7388C25.586 15.7348 25.4349 15.7656 25.2941 15.8249C25.1533 15.8842 25.0256 15.9709 24.9186 16.0799C24.8115 16.1889 24.7272 16.3181 24.6705 16.46C24.6137 16.6018 24.5857 16.7535 24.588 16.9063C24.5933 17.2193 24.7214 17.5177 24.9449 17.737C25.1683 17.9563 25.4691 18.0788 25.7822 18.0781Z" fill="#212529"/>
<path d="M12.8906 30.9685C12.8874 29.2854 13.2155 27.6182 13.8563 26.0618C13.9663 25.7761 13.9602 25.4587 13.8392 25.1774C13.7181 24.8962 13.4919 24.6735 13.2087 24.5569C12.9256 24.4404 12.6081 24.4393 12.3242 24.5539C12.0402 24.6685 11.8124 24.8896 11.6895 25.17C10.9317 27.0091 10.5434 28.9794 10.5469 30.9685V30.9966C10.5472 31.1497 10.5778 31.3013 10.637 31.4426C10.6962 31.5838 10.7827 31.712 10.8917 31.8196C11.0006 31.9272 11.1298 32.0122 11.2717 32.0697C11.4137 32.1272 11.5656 32.1559 11.7188 32.1544C12.031 32.151 12.3292 32.0245 12.5486 31.8024C12.7681 31.5804 12.891 31.2807 12.8906 30.9685Z" fill="#212529"/>
<path d="M37.6748 25.9895C37.7948 26.2762 38.0238 26.5035 38.3113 26.6214C38.5989 26.7393 38.9215 26.7382 39.2082 26.6182C39.495 26.4982 39.7223 26.2693 39.8402 25.9817C39.9581 25.6942 39.9569 25.3715 39.837 25.0848C39.0644 23.2418 37.9358 21.5692 36.5159 20.1629C36.2954 19.9438 35.9968 19.8213 35.686 19.8223C35.3751 19.8233 35.0774 19.9477 34.8583 20.1682C34.6391 20.3887 34.5166 20.6873 34.5176 20.9981C34.5186 21.309 34.643 21.6067 34.8635 21.8258C36.0655 23.0152 37.0209 24.4301 37.6748 25.9895Z" fill="#212529"/>
<path d="M39.8426 29.7678C39.5289 29.7746 39.2303 29.9042 39.0111 30.1288C38.792 30.3535 38.6698 30.6552 38.6708 30.969C38.6742 32.6611 38.3424 34.3371 37.6946 35.9002C37.5757 36.1874 37.5758 36.5101 37.6948 36.7972C37.8138 37.0843 38.042 37.3124 38.3292 37.4313C38.6163 37.5502 38.939 37.5501 39.2261 37.4311C39.5132 37.3121 39.7413 37.0839 39.8602 36.7967C40.6255 34.9493 41.0178 32.9687 41.0145 30.969V30.9116C41.0139 30.7592 40.983 30.6084 40.9235 30.468C40.8641 30.3277 40.7773 30.2006 40.6682 30.0941C40.5592 29.9877 40.43 29.904 40.2882 29.848C40.1465 29.792 39.995 29.7647 39.8426 29.7678Z" fill="#212529"/>
<path d="M25.7812 43.8589C24.0926 43.8626 22.4199 43.5324 20.8593 42.8874C20.572 42.7689 20.2493 42.7693 19.9623 42.8886C19.6753 43.008 19.4474 43.2364 19.3289 43.5238C19.2103 43.8111 19.2107 44.1338 19.33 44.4208C19.4494 44.7078 19.6778 44.9357 19.9652 45.0542C21.8012 45.8133 23.7687 46.2035 25.7554 46.2027C26.0786 46.215 26.3935 46.0985 26.6309 45.8788C26.8682 45.659 27.0085 45.354 27.021 45.0308C27.0261 44.8697 26.997 44.7093 26.9356 44.5602C26.8741 44.4112 26.7818 44.2768 26.6646 44.1661C26.5474 44.0553 26.4081 43.9707 26.2558 43.9178C26.1036 43.8648 25.9418 43.8448 25.7812 43.8589Z" fill="#212529"/>
<path d="M34.8994 40.0789C33.7052 41.2779 32.2858 42.2289 30.7228 42.8774C30.5774 42.934 30.4449 43.0192 30.3328 43.1277C30.2208 43.2363 30.1316 43.3662 30.0704 43.5097C30.0093 43.6532 29.9773 43.8075 29.9766 43.9635C29.9758 44.1195 30.0062 44.274 30.066 44.4182C30.1257 44.5623 30.2137 44.693 30.3246 44.8026C30.4356 44.9123 30.5673 44.9987 30.7121 45.0568C30.8569 45.1149 31.0118 45.1435 31.1678 45.1409C31.3238 45.1384 31.4777 45.1047 31.6204 45.0418C33.4693 44.2766 35.1484 43.1531 36.5611 41.736C36.6699 41.6271 36.7562 41.4979 36.815 41.3556C36.8739 41.2134 36.9041 41.061 36.9041 40.9071C36.904 40.7531 36.8737 40.6007 36.8147 40.4585C36.7558 40.3163 36.6694 40.1872 36.5605 40.0784C36.4516 39.9696 36.3224 39.8833 36.1801 39.8244C36.0379 39.7656 35.8855 39.7353 35.7316 39.7354C35.5776 39.7354 35.4252 39.7658 35.283 39.8247C35.1409 39.8837 35.0117 39.9701 34.9029 40.0789H34.8994Z" fill="#212529"/>
<path d="M13.8786 35.9245C13.8244 35.7755 13.7405 35.639 13.632 35.5234C13.5235 35.4078 13.3927 35.3154 13.2475 35.2518C13.1022 35.1881 12.9456 35.1547 12.7871 35.1534C12.6285 35.152 12.4713 35.1829 12.3251 35.2441C12.1788 35.3053 12.0465 35.3955 11.9361 35.5093C11.8257 35.6232 11.7396 35.7582 11.6829 35.9063C11.6262 36.0543 11.6002 36.2124 11.6064 36.3708C11.6125 36.5292 11.6508 36.6848 11.7188 36.828C12.4866 38.6744 13.6121 40.3507 15.0305 41.7604C15.1388 41.8722 15.2682 41.9612 15.4113 42.0224C15.5543 42.0837 15.7082 42.1158 15.8637 42.1169C16.0193 42.118 16.1736 42.0881 16.3175 42.029C16.4615 41.9699 16.5922 41.8827 16.7021 41.7725C16.8119 41.6623 16.8987 41.5314 16.9575 41.3873C17.0162 41.2432 17.0456 41.0888 17.0441 40.9332C17.0425 40.7776 17.0099 40.6239 16.9483 40.481C16.8867 40.3382 16.7973 40.209 16.6852 40.101C15.4833 38.9076 14.5295 37.4881 13.8786 35.9245Z" fill="#212529"/>
<path d="M35.1563 30.9688C35.1563 29.1146 34.6064 27.302 33.5763 25.7603C32.5461 24.2186 31.082 23.017 29.3689 22.3074C27.6559 21.5978 25.7709 21.4122 23.9523 21.7739C22.1337 22.1356 20.4632 23.0285 19.1521 24.3396C17.841 25.6507 16.9481 27.3212 16.5864 29.1398C16.2247 30.9584 16.4103 32.8434 17.1199 34.5564C17.8295 36.2695 19.0311 37.7336 20.5728 38.7638C22.1145 39.7939 23.9271 40.3438 25.7813 40.3438C28.2668 40.341 30.6497 39.3523 32.4073 37.5948C34.1648 35.8372 35.1535 33.4543 35.1563 30.9688ZM18.75 30.9688C18.75 29.5781 19.1624 28.2187 19.935 27.0624C20.7076 25.9061 21.8057 25.0049 23.0905 24.4727C24.3753 23.9405 25.7891 23.8013 27.153 24.0726C28.5169 24.3439 29.7698 25.0136 30.7531 25.9969C31.7364 26.9802 32.4061 28.2331 32.6774 29.597C32.9487 30.961 32.8095 32.3747 32.2773 33.6595C31.7451 34.9443 30.8439 36.0424 29.6876 36.815C28.5313 37.5876 27.1719 38 25.7813 38C23.917 37.9981 22.1297 37.2568 20.8115 35.9385C19.4933 34.6203 18.7519 32.833 18.75 30.9688Z" fill="#212529"/>
<path d="M8.20312 8.70312H9.375C9.6858 8.70312 9.98387 8.57966 10.2036 8.35989C10.4234 8.14012 10.5469 7.84205 10.5469 7.53125C10.5469 7.22045 10.4234 6.92238 10.2036 6.70261C9.98387 6.48284 9.6858 6.35938 9.375 6.35938H8.20312C7.89232 6.35938 7.59425 6.48284 7.37448 6.70261C7.15472 6.92238 7.03125 7.22045 7.03125 7.53125C7.03125 7.84205 7.15472 8.14012 7.37448 8.35989C7.59425 8.57966 7.89232 8.70312 8.20312 8.70312Z" fill="#212529"/>
<path d="M15.2344 8.70312H16.4062C16.7171 8.70312 17.0151 8.57966 17.2349 8.35989C17.4547 8.14012 17.5781 7.84205 17.5781 7.53125C17.5781 7.22045 17.4547 6.92238 17.2349 6.70261C17.0151 6.48284 16.7171 6.35938 16.4062 6.35938H15.2344C14.9236 6.35938 14.6255 6.48284 14.4057 6.70261C14.186 6.92238 14.0625 7.22045 14.0625 7.53125C14.0625 7.84205 14.186 8.14012 14.4057 8.35989C14.6255 8.57966 14.9236 8.70312 15.2344 8.70312Z" fill="#212529"/>
<path d="M22.2656 8.70312H23.4375C23.7483 8.70312 24.0464 8.57966 24.2661 8.35989C24.4859 8.14012 24.6094 7.84205 24.6094 7.53125C24.6094 7.22045 24.4859 6.92238 24.2661 6.70261C24.0464 6.48284 23.7483 6.35938 23.4375 6.35938H22.2656C21.9548 6.35938 21.6568 6.48284 21.437 6.70261C21.2172 6.92238 21.0938 7.22045 21.0938 7.53125C21.0938 7.84205 21.2172 8.14012 21.437 8.35989C21.6568 8.57966 21.9548 8.70312 22.2656 8.70312Z" fill="#212529"/>
</svg>
